<svg width="362" height="130" viewBox="0 0 362 130" fill="none" xmlns="http://www.w3.org/2000/svg">
<g filter="url(#filter0_d_76_90)">
<path d="M23 109.5L27 99.5L33.5 109.5L37 103L41 109.5L46 103L53.5 108H64L76 81L86 28.5L92 68.5L102.5 76L110.5 69.5L118.5 81L129 78L135 51.5L140 61L149.5 8L154 21.5L163.5 30.5L171 21.5L174 8L180 23.5L191.5 30.5L200.5 66.5L208.5 35L217 26.5L226 36.5L232 20L235.5 30.5L246.5 38.5H262.5L272 23.5L285.5 69.5L296 76.5L304.5 61L308 69.5L319.5 76.5L323 90.5L330 73L340.5 61L346.5 78L352.5 55" stroke="#A9DFD8" stroke-width="2"/>
</g>
<path d="M24.9318 122.182H25.6364V126.341C25.6364 126.712 25.5682 127.027 25.4318 127.287C25.2955 127.546 25.1032 127.743 24.8551 127.878C24.607 128.012 24.3144 128.08 23.9773 128.08C23.6591 128.08 23.3759 128.022 23.1278 127.906C22.8797 127.789 22.6847 127.622 22.5426 127.406C22.4006 127.19 22.3295 126.934 22.3295 126.636H23.0227C23.0227 126.801 23.0634 126.945 23.1449 127.068C23.2282 127.189 23.3419 127.284 23.4858 127.352C23.6297 127.42 23.7936 127.455 23.9773 127.455C24.1799 127.455 24.3523 127.412 24.4943 127.327C24.6364 127.241 24.7443 127.116 24.8182 126.952C24.8939 126.785 24.9318 126.581 24.9318 126.341V122.182ZM28.2415 128.102C27.965 128.102 27.714 128.05 27.4886 127.946C27.2633 127.84 27.0843 127.688 26.9517 127.489C26.8191 127.288 26.7528 127.045 26.7528 126.761C26.7528 126.511 26.8021 126.309 26.9006 126.153C26.9991 125.996 27.1307 125.873 27.2955 125.784C27.4602 125.695 27.642 125.629 27.8409 125.585C28.0417 125.54 28.2434 125.504 28.446 125.477C28.7112 125.443 28.9261 125.418 29.0909 125.401C29.2576 125.382 29.3788 125.35 29.4545 125.307C29.5322 125.263 29.571 125.187 29.571 125.08V125.057C29.571 124.777 29.4943 124.559 29.3409 124.403C29.1894 124.248 28.9593 124.17 28.6506 124.17C28.3305 124.17 28.0795 124.241 27.8977 124.381C27.7159 124.521 27.5881 124.67 27.5142 124.83L26.8778 124.602C26.9915 124.337 27.143 124.131 27.3324 123.983C27.5237 123.833 27.732 123.729 27.9574 123.67C28.1847 123.61 28.4081 123.58 28.6278 123.58C28.768 123.58 28.929 123.597 29.1108 123.631C29.2945 123.663 29.4716 123.73 29.642 123.832C29.8144 123.935 29.9574 124.089 30.071 124.295C30.1847 124.502 30.2415 124.778 30.2415 125.125V128H29.571V127.409H29.5369C29.4915 127.504 29.4157 127.605 29.3097 127.713C29.2036 127.821 29.0625 127.913 28.8864 127.989C28.7102 128.064 28.4953 128.102 28.2415 128.102ZM28.3438 127.5C28.6089 127.5 28.8324 127.448 29.0142 127.344C29.1979 127.24 29.3362 127.105 29.429 126.94C29.5237 126.776 29.571 126.602 29.571 126.42V125.807C29.5426 125.841 29.4801 125.872 29.3835 125.901C29.2888 125.927 29.179 125.951 29.054 125.972C28.9309 125.991 28.8106 126.008 28.6932 126.023C28.5777 126.036 28.4839 126.047 28.4119 126.057C28.2377 126.08 28.0748 126.116 27.9233 126.168C27.7737 126.217 27.6525 126.292 27.5597 126.392C27.4688 126.491 27.4233 126.625 27.4233 126.795C27.4233 127.028 27.5095 127.205 27.6818 127.324C27.8561 127.441 28.0767 127.5 28.3438 127.5ZM32.1357 125.375V128H31.4652V123.636H32.1129V124.318H32.1697C32.272 124.097 32.4273 123.919 32.6357 123.784C32.844 123.648 33.1129 123.58 33.4425 123.58C33.7379 123.58 33.9964 123.64 34.218 123.761C34.4396 123.881 34.612 124.062 34.7351 124.307C34.8582 124.549 34.9197 124.856 34.9197 125.227V128H34.2493V125.273C34.2493 124.93 34.1603 124.663 33.9822 124.472C33.8042 124.278 33.5599 124.182 33.2493 124.182C33.0353 124.182 32.844 124.228 32.6754 124.321C32.5088 124.414 32.3771 124.549 32.2805 124.727C32.1839 124.905 32.1357 125.121 32.1357 125.375Z" fill="white"/>
<path d="M51.7045 128V122.182H55.1932V122.807H52.4091V124.773H54.9318V125.398H52.4091V128H51.7045ZM57.8182 128.091C57.3977 128.091 57.035 127.998 56.7301 127.812C56.4271 127.625 56.1932 127.364 56.0284 127.028C55.8655 126.691 55.7841 126.299 55.7841 125.852C55.7841 125.405 55.8655 125.011 56.0284 124.67C56.1932 124.328 56.4223 124.061 56.7159 123.869C57.0114 123.676 57.3561 123.58 57.75 123.58C57.9773 123.58 58.2017 123.617 58.4233 123.693C58.6449 123.769 58.8466 123.892 59.0284 124.062C59.2102 124.231 59.3551 124.455 59.4631 124.733C59.571 125.011 59.625 125.354 59.625 125.761V126.045H56.2614V125.466H58.9432C58.9432 125.22 58.8939 125 58.7955 124.807C58.6989 124.614 58.5606 124.461 58.3807 124.349C58.2027 124.238 57.9924 124.182 57.75 124.182C57.483 124.182 57.2519 124.248 57.0568 124.381C56.8636 124.511 56.715 124.682 56.6108 124.892C56.5066 125.102 56.4545 125.328 56.4545 125.568V125.955C56.4545 126.284 56.5114 126.563 56.625 126.793C56.7405 127.02 56.9006 127.193 57.1051 127.312C57.3097 127.43 57.5473 127.489 57.8182 127.489C57.9943 127.489 58.1534 127.464 58.2955 127.415C58.4394 127.364 58.5634 127.288 58.6676 127.188C58.7718 127.085 58.8523 126.958 58.9091 126.807L59.5568 126.989C59.4886 127.208 59.3741 127.402 59.2131 127.568C59.0521 127.733 58.8532 127.862 58.6165 127.955C58.3797 128.045 58.1136 128.091 57.8182 128.091ZM60.7358 128V122.182H61.4062V124.33H61.4631C61.5123 124.254 61.5805 124.157 61.6676 124.04C61.7566 123.92 61.8835 123.814 62.0483 123.722C62.215 123.627 62.4403 123.58 62.7244 123.58C63.0919 123.58 63.4157 123.671 63.696 123.855C63.9763 124.039 64.1951 124.299 64.3523 124.636C64.5095 124.973 64.5881 125.371 64.5881 125.83C64.5881 126.292 64.5095 126.692 64.3523 127.031C64.1951 127.368 63.9773 127.63 63.6989 127.815C63.4205 127.999 63.0994 128.091 62.7358 128.091C62.4555 128.091 62.2311 128.045 62.0625 127.952C61.8939 127.857 61.7642 127.75 61.6733 127.631C61.5824 127.509 61.5123 127.409 61.4631 127.33H61.3835V128H60.7358ZM61.3949 125.818C61.3949 126.148 61.4432 126.438 61.5398 126.69C61.6364 126.94 61.7775 127.136 61.9631 127.278C62.1487 127.419 62.3759 127.489 62.6449 127.489C62.9252 127.489 63.1591 127.415 63.3466 127.267C63.536 127.117 63.678 126.917 63.7727 126.665C63.8693 126.411 63.9176 126.129 63.9176 125.818C63.9176 125.511 63.8703 125.235 63.7756 124.989C63.6828 124.741 63.5417 124.545 63.3523 124.401C63.1648 124.255 62.929 124.182 62.6449 124.182C62.3722 124.182 62.143 124.251 61.9574 124.389C61.7718 124.526 61.6316 124.717 61.5369 124.963C61.4422 125.207 61.3949 125.492 61.3949 125.818Z" fill="white"/>
<path d="M80.7045 122.182H81.5455L83.5227 127.011H83.5909L85.5682 122.182H86.4091V128H85.75V123.58H85.6932L83.875 128H83.2386L81.4205 123.58H81.3636V128H80.7045V122.182ZM89.0149 128.102C88.7384 128.102 88.4875 128.05 88.2621 127.946C88.0367 127.84 87.8577 127.688 87.7251 127.489C87.5926 127.288 87.5263 127.045 87.5263 126.761C87.5263 126.511 87.5755 126.309 87.674 126.153C87.7725 125.996 87.9041 125.873 88.0689 125.784C88.2337 125.695 88.4155 125.629 88.6143 125.585C88.8151 125.54 89.0168 125.504 89.2195 125.477C89.4846 125.443 89.6996 125.418 89.8643 125.401C90.031 125.382 90.1522 125.35 90.228 125.307C90.3056 125.263 90.3445 125.187 90.3445 125.08V125.057C90.3445 124.777 90.2678 124.559 90.1143 124.403C89.9628 124.248 89.7327 124.17 89.424 124.17C89.1039 124.17 88.853 124.241 88.6712 124.381C88.4893 124.521 88.3615 124.67 88.2876 124.83L87.6513 124.602C87.7649 124.337 87.9164 124.131 88.1058 123.983C88.2971 123.833 88.5054 123.729 88.7308 123.67C88.9581 123.61 89.1816 123.58 89.4013 123.58C89.5414 123.58 89.7024 123.597 89.8842 123.631C90.0679 123.663 90.245 123.73 90.4155 123.832C90.5878 123.935 90.7308 124.089 90.8445 124.295C90.9581 124.502 91.0149 124.778 91.0149 125.125V128H90.3445V127.409H90.3104C90.2649 127.504 90.1892 127.605 90.0831 127.713C89.977 127.821 89.8359 127.913 89.6598 127.989C89.4837 128.064 89.2687 128.102 89.0149 128.102ZM89.1172 127.5C89.3823 127.5 89.6058 127.448 89.7876 127.344C89.9714 127.24 90.1096 127.105 90.2024 126.94C90.2971 126.776 90.3445 126.602 90.3445 126.42V125.807C90.3161 125.841 90.2536 125.872 90.157 125.901C90.0623 125.927 89.9524 125.951 89.8274 125.972C89.7043 125.991 89.584 126.008 89.4666 126.023C89.3511 126.036 89.2573 126.047 89.1854 126.057C89.0111 126.08 88.8482 126.116 88.6967 126.168C88.5471 126.217 88.4259 126.292 88.3331 126.392C88.2422 126.491 88.1967 126.625 88.1967 126.795C88.1967 127.028 88.2829 127.205 88.4553 127.324C88.6295 127.441 88.8501 127.5 89.1172 127.5ZM92.2386 128V123.636H92.8864V124.295H92.9318C93.0114 124.08 93.1553 123.904 93.3636 123.77C93.572 123.635 93.8068 123.568 94.0682 123.568C94.1174 123.568 94.179 123.569 94.2528 123.571C94.3267 123.573 94.3826 123.576 94.4205 123.58V124.261C94.3977 124.256 94.3456 124.247 94.2642 124.236C94.1847 124.223 94.1004 124.216 94.0114 124.216C93.7992 124.216 93.6098 124.26 93.4432 124.349C93.2784 124.437 93.1477 124.558 93.0511 124.713C92.9564 124.866 92.9091 125.042 92.9091 125.239V128H92.2386Z" fill="white"/>
<path d="M110.943 128H110.205L112.341 122.182H113.068L115.205 128H114.466L112.727 123.102H112.682L110.943 128ZM111.216 125.727H114.193V126.352H111.216V125.727ZM116.02 129.636V123.636H116.668V124.33H116.747C116.796 124.254 116.865 124.157 116.952 124.04C117.041 123.92 117.168 123.814 117.332 123.722C117.499 123.627 117.724 123.58 118.009 123.58C118.376 123.58 118.7 123.671 118.98 123.855C119.26 124.039 119.479 124.299 119.636 124.636C119.794 124.973 119.872 125.371 119.872 125.83C119.872 126.292 119.794 126.692 119.636 127.031C119.479 127.368 119.261 127.63 118.983 127.815C118.705 127.999 118.384 128.091 118.02 128.091C117.74 128.091 117.515 128.045 117.347 127.952C117.178 127.857 117.048 127.75 116.957 127.631C116.866 127.509 116.796 127.409 116.747 127.33H116.69V129.636H116.02ZM116.679 125.818C116.679 126.148 116.727 126.438 116.824 126.69C116.92 126.94 117.062 127.136 117.247 127.278C117.433 127.419 117.66 127.489 117.929 127.489C118.209 127.489 118.443 127.415 118.631 127.267C118.82 127.117 118.962 126.917 119.057 126.665C119.153 126.411 119.202 126.129 119.202 125.818C119.202 125.511 119.154 125.235 119.06 124.989C118.967 124.741 118.826 124.545 118.636 124.401C118.449 124.255 118.213 124.182 117.929 124.182C117.656 124.182 117.427 124.251 117.241 124.389C117.056 124.526 116.916 124.717 116.821 124.963C116.726 125.207 116.679 125.492 116.679 125.818ZM120.895 128V123.636H121.543V124.295H121.588C121.668 124.08 121.812 123.904 122.02 123.77C122.228 123.635 122.463 123.568 122.724 123.568C122.774 123.568 122.835 123.569 122.909 123.571C122.983 123.573 123.039 123.576 123.077 123.58V124.261C123.054 124.256 123.002 124.247 122.92 124.236C122.841 124.223 122.757 124.216 122.668 124.216C122.455 124.216 122.266 124.26 122.099 124.349C121.935 124.437 121.804 124.558 121.707 124.713C121.613 124.866 121.565 125.042 121.565 125.239V128H120.895Z" fill="white"/>
<path d="M139.705 122.182H140.545L142.523 127.011H142.591L144.568 122.182H145.409V128H144.75V123.58H144.693L142.875 128H142.239L140.42 123.58H140.364V128H139.705V122.182ZM148.015 128.102C147.738 128.102 147.487 128.05 147.262 127.946C147.037 127.84 146.858 127.688 146.725 127.489C146.593 127.288 146.526 127.045 146.526 126.761C146.526 126.511 146.576 126.309 146.674 126.153C146.772 125.996 146.904 125.873 147.069 125.784C147.234 125.695 147.415 125.629 147.614 125.585C147.815 125.54 148.017 125.504 148.219 125.477C148.485 125.443 148.7 125.418 148.864 125.401C149.031 125.382 149.152 125.35 149.228 125.307C149.306 125.263 149.344 125.187 149.344 125.08V125.057C149.344 124.777 149.268 124.559 149.114 124.403C148.963 124.248 148.733 124.17 148.424 124.17C148.104 124.17 147.853 124.241 147.671 124.381C147.489 124.521 147.362 124.67 147.288 124.83L146.651 124.602C146.765 124.337 146.916 124.131 147.106 123.983C147.297 123.833 147.505 123.729 147.731 123.67C147.958 123.61 148.182 123.58 148.401 123.58C148.541 123.58 148.702 123.597 148.884 123.631C149.068 123.663 149.245 123.73 149.415 123.832C149.588 123.935 149.731 124.089 149.844 124.295C149.958 124.502 150.015 124.778 150.015 125.125V128H149.344V127.409H149.31C149.265 127.504 149.189 127.605 149.083 127.713C148.977 127.821 148.836 127.913 148.66 127.989C148.484 128.064 148.269 128.102 148.015 128.102ZM148.117 127.5C148.382 127.5 148.606 127.448 148.788 127.344C148.971 127.24 149.11 127.105 149.202 126.94C149.297 126.776 149.344 126.602 149.344 126.42V125.807C149.316 125.841 149.254 125.872 149.157 125.901C149.062 125.927 148.952 125.951 148.827 125.972C148.704 125.991 148.584 126.008 148.467 126.023C148.351 126.036 148.257 126.047 148.185 126.057C148.011 126.08 147.848 126.116 147.697 126.168C147.547 126.217 147.426 126.292 147.333 126.392C147.242 126.491 147.197 126.625 147.197 126.795C147.197 127.028 147.283 127.205 147.455 127.324C147.629 127.441 147.85 127.5 148.117 127.5ZM151.514 129.636C151.401 129.636 151.299 129.627 151.21 129.608C151.121 129.591 151.06 129.574 151.026 129.557L151.196 128.966C151.359 129.008 151.503 129.023 151.628 129.011C151.753 129 151.864 128.944 151.96 128.844C152.059 128.745 152.149 128.585 152.23 128.364L152.355 128.023L150.741 123.636H151.469L152.673 127.114H152.719L153.923 123.636H154.651L152.798 128.636C152.715 128.862 152.612 129.048 152.489 129.196C152.366 129.346 152.223 129.456 152.06 129.528C151.899 129.6 151.717 129.636 151.514 129.636Z" fill="white"/>
<path d="M172.932 122.182H173.636V126.341C173.636 126.712 173.568 127.027 173.432 127.287C173.295 127.546 173.103 127.743 172.855 127.878C172.607 128.012 172.314 128.08 171.977 128.08C171.659 128.08 171.376 128.022 171.128 127.906C170.88 127.789 170.685 127.622 170.543 127.406C170.401 127.19 170.33 126.934 170.33 126.636H171.023C171.023 126.801 171.063 126.945 171.145 127.068C171.228 127.189 171.342 127.284 171.486 127.352C171.63 127.42 171.794 127.455 171.977 127.455C172.18 127.455 172.352 127.412 172.494 127.327C172.636 127.241 172.744 127.116 172.818 126.952C172.894 126.785 172.932 126.581 172.932 126.341V122.182ZM177.707 126.216V123.636H178.378V128H177.707V127.261H177.662C177.56 127.483 177.401 127.671 177.185 127.827C176.969 127.98 176.696 128.057 176.366 128.057C176.094 128.057 175.851 127.997 175.639 127.878C175.427 127.757 175.26 127.575 175.139 127.332C175.018 127.088 174.957 126.78 174.957 126.409V123.636H175.628V126.364C175.628 126.682 175.717 126.936 175.895 127.125C176.075 127.314 176.304 127.409 176.582 127.409C176.749 127.409 176.919 127.366 177.091 127.281C177.265 127.196 177.411 127.065 177.528 126.889C177.648 126.713 177.707 126.489 177.707 126.216ZM180.276 125.375V128H179.606V123.636H180.254V124.318H180.31C180.413 124.097 180.568 123.919 180.776 123.784C180.985 123.648 181.254 123.58 181.583 123.58C181.879 123.58 182.137 123.64 182.359 123.761C182.58 123.881 182.753 124.062 182.876 124.307C182.999 124.549 183.06 124.856 183.06 125.227V128H182.39V125.273C182.39 124.93 182.301 124.663 182.123 124.472C181.945 124.278 181.701 124.182 181.39 124.182C181.176 124.182 180.985 124.228 180.816 124.321C180.649 124.414 180.518 124.549 180.421 124.727C180.325 124.905 180.276 125.121 180.276 125.375Z" fill="white"/>
<path d="M201.932 122.182H202.636V126.341C202.636 126.712 202.568 127.027 202.432 127.287C202.295 127.546 202.103 127.743 201.855 127.878C201.607 128.012 201.314 128.08 200.977 128.08C200.659 128.08 200.376 128.022 200.128 127.906C199.88 127.789 199.685 127.622 199.543 127.406C199.401 127.19 199.33 126.934 199.33 126.636H200.023C200.023 126.801 200.063 126.945 200.145 127.068C200.228 127.189 200.342 127.284 200.486 127.352C200.63 127.42 200.794 127.455 200.977 127.455C201.18 127.455 201.352 127.412 201.494 127.327C201.636 127.241 201.744 127.116 201.818 126.952C201.894 126.785 201.932 126.581 201.932 126.341V122.182ZM206.707 126.216V123.636H207.378V128H206.707V127.261H206.662C206.56 127.483 206.401 127.671 206.185 127.827C205.969 127.98 205.696 128.057 205.366 128.057C205.094 128.057 204.851 127.997 204.639 127.878C204.427 127.757 204.26 127.575 204.139 127.332C204.018 127.088 203.957 126.78 203.957 126.409V123.636H204.628V126.364C204.628 126.682 204.717 126.936 204.895 127.125C205.075 127.314 205.304 127.409 205.582 127.409C205.749 127.409 205.919 127.366 206.091 127.281C206.265 127.196 206.411 127.065 206.528 126.889C206.648 126.713 206.707 126.489 206.707 126.216ZM209.276 122.182V128H208.606V122.182H209.276Z" fill="white"/>
<path d="M225.943 128H225.205L227.341 122.182H228.068L230.205 128H229.466L227.727 123.102H227.682L225.943 128ZM226.216 125.727H229.193V126.352H226.216V125.727ZM233.77 126.216V123.636H234.44V128H233.77V127.261H233.724C233.622 127.483 233.463 127.671 233.247 127.827C233.031 127.98 232.759 128.057 232.429 128.057C232.156 128.057 231.914 127.997 231.702 127.878C231.49 127.757 231.323 127.575 231.202 127.332C231.08 127.088 231.02 126.78 231.02 126.409V123.636H231.69V126.364C231.69 126.682 231.779 126.936 231.957 127.125C232.137 127.314 232.366 127.409 232.645 127.409C232.812 127.409 232.981 127.366 233.153 127.281C233.328 127.196 233.473 127.065 233.591 126.889C233.71 126.713 233.77 126.489 233.77 126.216ZM237.43 129.727C237.106 129.727 236.827 129.686 236.594 129.602C236.362 129.521 236.167 129.413 236.012 129.278C235.859 129.146 235.737 129.004 235.646 128.852L236.18 128.477C236.24 128.557 236.317 128.648 236.41 128.75C236.503 128.854 236.629 128.944 236.79 129.02C236.953 129.098 237.166 129.136 237.43 129.136C237.782 129.136 238.073 129.051 238.302 128.881C238.531 128.71 238.646 128.443 238.646 128.08V127.193H238.589C238.54 127.273 238.469 127.371 238.379 127.489C238.29 127.604 238.161 127.707 237.992 127.798C237.826 127.887 237.6 127.932 237.316 127.932C236.964 127.932 236.647 127.848 236.367 127.682C236.089 127.515 235.868 127.273 235.705 126.955C235.544 126.636 235.464 126.25 235.464 125.795C235.464 125.348 235.542 124.959 235.7 124.628C235.857 124.295 236.076 124.037 236.356 123.855C236.636 123.671 236.96 123.58 237.327 123.58C237.612 123.58 237.837 123.627 238.004 123.722C238.172 123.814 238.301 123.92 238.39 124.04C238.481 124.157 238.551 124.254 238.6 124.33H238.668V123.636H239.316V128.125C239.316 128.5 239.231 128.805 239.06 129.04C238.892 129.277 238.665 129.45 238.379 129.56C238.094 129.671 237.778 129.727 237.43 129.727ZM237.407 127.33C237.676 127.33 237.903 127.268 238.089 127.145C238.274 127.022 238.415 126.845 238.512 126.614C238.609 126.383 238.657 126.106 238.657 125.784C238.657 125.47 238.61 125.192 238.515 124.952C238.42 124.711 238.28 124.523 238.094 124.386C237.909 124.25 237.68 124.182 237.407 124.182C237.123 124.182 236.886 124.254 236.697 124.398C236.509 124.542 236.368 124.735 236.273 124.977C236.181 125.22 236.134 125.489 236.134 125.784C236.134 126.087 236.182 126.355 236.276 126.588C236.373 126.819 236.515 127.001 236.702 127.134C236.892 127.264 237.127 127.33 237.407 127.33Z" fill="white"/>
<path d="M258.886 123.636C258.852 123.348 258.714 123.125 258.472 122.966C258.229 122.807 257.932 122.727 257.58 122.727C257.322 122.727 257.097 122.769 256.903 122.852C256.712 122.936 256.563 123.05 256.455 123.196C256.348 123.342 256.295 123.508 256.295 123.693C256.295 123.848 256.332 123.982 256.406 124.094C256.482 124.204 256.579 124.295 256.696 124.369C256.813 124.441 256.937 124.501 257.065 124.548C257.194 124.594 257.312 124.631 257.42 124.659L258.011 124.818C258.163 124.858 258.331 124.913 258.517 124.983C258.705 125.053 258.884 125.149 259.054 125.27C259.226 125.389 259.368 125.543 259.48 125.73C259.592 125.918 259.648 126.148 259.648 126.42C259.648 126.735 259.565 127.019 259.401 127.273C259.238 127.527 258.999 127.728 258.685 127.878C258.372 128.027 257.992 128.102 257.545 128.102C257.129 128.102 256.768 128.035 256.463 127.901C256.16 127.766 255.921 127.579 255.747 127.338C255.575 127.098 255.477 126.818 255.455 126.5H256.182C256.201 126.72 256.275 126.902 256.403 127.045C256.534 127.187 256.699 127.294 256.898 127.364C257.098 127.432 257.314 127.466 257.545 127.466C257.814 127.466 258.056 127.422 258.27 127.335C258.484 127.246 258.653 127.123 258.778 126.966C258.903 126.807 258.966 126.621 258.966 126.409C258.966 126.216 258.912 126.059 258.804 125.938C258.696 125.816 258.554 125.718 258.378 125.642C258.202 125.566 258.011 125.5 257.807 125.443L257.091 125.239C256.636 125.108 256.277 124.921 256.011 124.679C255.746 124.437 255.614 124.119 255.614 123.727C255.614 123.402 255.702 123.117 255.878 122.875C256.056 122.631 256.295 122.441 256.594 122.307C256.895 122.17 257.231 122.102 257.602 122.102C257.977 122.102 258.311 122.17 258.602 122.304C258.894 122.437 259.125 122.618 259.295 122.849C259.468 123.08 259.559 123.343 259.568 123.636H258.886ZM262.545 128.091C262.124 128.091 261.762 127.998 261.457 127.812C261.154 127.625 260.92 127.364 260.755 127.028C260.592 126.691 260.511 126.299 260.511 125.852C260.511 125.405 260.592 125.011 260.755 124.67C260.92 124.328 261.149 124.061 261.442 123.869C261.738 123.676 262.083 123.58 262.477 123.58C262.704 123.58 262.928 123.617 263.15 123.693C263.371 123.769 263.573 123.892 263.755 124.062C263.937 124.231 264.082 124.455 264.19 124.733C264.298 125.011 264.352 125.354 264.352 125.761V126.045H260.988V125.466H263.67C263.67 125.22 263.621 125 263.522 124.807C263.425 124.614 263.287 124.461 263.107 124.349C262.929 124.238 262.719 124.182 262.477 124.182C262.21 124.182 261.978 124.248 261.783 124.381C261.59 124.511 261.442 124.682 261.337 124.892C261.233 125.102 261.181 125.328 261.181 125.568V125.955C261.181 126.284 261.238 126.563 261.352 126.793C261.467 127.02 261.627 127.193 261.832 127.312C262.036 127.43 262.274 127.489 262.545 127.489C262.721 127.489 262.88 127.464 263.022 127.415C263.166 127.364 263.29 127.288 263.394 127.188C263.498 127.085 263.579 126.958 263.636 126.807L264.283 126.989C264.215 127.208 264.101 127.402 263.94 127.568C263.779 127.733 263.58 127.862 263.343 127.955C263.106 128.045 262.84 128.091 262.545 128.091ZM265.371 129.636V123.636H266.019V124.33H266.099C266.148 124.254 266.216 124.157 266.303 124.04C266.392 123.92 266.519 123.814 266.684 123.722C266.851 123.627 267.076 123.58 267.36 123.58C267.728 123.58 268.051 123.671 268.332 123.855C268.612 124.039 268.831 124.299 268.988 124.636C269.145 124.973 269.224 125.371 269.224 125.83C269.224 126.292 269.145 126.692 268.988 127.031C268.831 127.368 268.613 127.63 268.335 127.815C268.056 127.999 267.735 128.091 267.371 128.091C267.091 128.091 266.867 128.045 266.698 127.952C266.53 127.857 266.4 127.75 266.309 127.631C266.218 127.509 266.148 127.409 266.099 127.33H266.042V129.636H265.371ZM266.031 125.818C266.031 126.148 266.079 126.438 266.175 126.69C266.272 126.94 266.413 127.136 266.599 127.278C266.784 127.419 267.012 127.489 267.281 127.489C267.561 127.489 267.795 127.415 267.982 127.267C268.172 127.117 268.314 126.917 268.408 126.665C268.505 126.411 268.553 126.129 268.553 125.818C268.553 125.511 268.506 125.235 268.411 124.989C268.318 124.741 268.177 124.545 267.988 124.401C267.8 124.255 267.565 124.182 267.281 124.182C267.008 124.182 266.779 124.251 266.593 124.389C266.407 124.526 266.267 124.717 266.173 124.963C266.078 125.207 266.031 125.492 266.031 125.818Z" fill="white"/>
<path d="M290.614 125.091C290.614 125.705 290.503 126.235 290.281 126.682C290.06 127.129 289.756 127.473 289.369 127.716C288.983 127.958 288.542 128.08 288.045 128.08C287.549 128.08 287.108 127.958 286.722 127.716C286.335 127.473 286.031 127.129 285.81 126.682C285.588 126.235 285.477 125.705 285.477 125.091C285.477 124.477 285.588 123.947 285.81 123.5C286.031 123.053 286.335 122.708 286.722 122.466C287.108 122.223 287.549 122.102 288.045 122.102C288.542 122.102 288.983 122.223 289.369 122.466C289.756 122.708 290.06 123.053 290.281 123.5C290.503 123.947 290.614 124.477 290.614 125.091ZM289.932 125.091C289.932 124.587 289.848 124.162 289.679 123.815C289.512 123.469 289.286 123.206 289 123.028C288.716 122.85 288.398 122.761 288.045 122.761C287.693 122.761 287.374 122.85 287.088 123.028C286.804 123.206 286.578 123.469 286.409 123.815C286.242 124.162 286.159 124.587 286.159 125.091C286.159 125.595 286.242 126.02 286.409 126.366C286.578 126.713 286.804 126.975 287.088 127.153C287.374 127.331 287.693 127.42 288.045 127.42C288.398 127.42 288.716 127.331 289 127.153C289.286 126.975 289.512 126.713 289.679 126.366C289.848 126.02 289.932 125.595 289.932 125.091ZM293.48 128.091C293.071 128.091 292.719 127.994 292.423 127.801C292.128 127.608 291.901 127.342 291.741 127.003C291.582 126.664 291.503 126.277 291.503 125.841C291.503 125.398 291.584 125.007 291.747 124.668C291.912 124.327 292.141 124.061 292.435 123.869C292.73 123.676 293.075 123.58 293.469 123.58C293.776 123.58 294.052 123.636 294.298 123.75C294.545 123.864 294.746 124.023 294.903 124.227C295.061 124.432 295.158 124.67 295.196 124.943H294.526C294.474 124.744 294.361 124.568 294.185 124.415C294.01 124.259 293.776 124.182 293.48 124.182C293.219 124.182 292.99 124.25 292.793 124.386C292.598 124.521 292.445 124.711 292.335 124.957C292.227 125.202 292.173 125.489 292.173 125.818C292.173 126.155 292.226 126.449 292.332 126.699C292.44 126.949 292.592 127.143 292.787 127.281C292.984 127.42 293.215 127.489 293.48 127.489C293.654 127.489 293.812 127.458 293.955 127.398C294.097 127.337 294.217 127.25 294.315 127.136C294.414 127.023 294.484 126.886 294.526 126.727H295.196C295.158 126.985 295.064 127.217 294.915 127.423C294.767 127.628 294.571 127.791 294.327 127.912C294.084 128.031 293.802 128.091 293.48 128.091ZM298.074 123.636V124.205H295.812V123.636H298.074ZM296.472 122.591H297.142V126.75C297.142 126.939 297.17 127.081 297.224 127.176C297.281 127.269 297.353 127.331 297.44 127.364C297.529 127.394 297.623 127.409 297.722 127.409C297.795 127.409 297.856 127.405 297.903 127.398C297.951 127.388 297.989 127.381 298.017 127.375L298.153 127.977C298.108 127.994 298.045 128.011 297.963 128.028C297.882 128.047 297.778 128.057 297.653 128.057C297.464 128.057 297.278 128.016 297.097 127.935C296.917 127.853 296.767 127.729 296.648 127.562C296.53 127.396 296.472 127.186 296.472 126.932V122.591Z" fill="white"/>
<path d="M319.318 122.182V128H318.636L315.466 123.432H315.409V128H314.705V122.182H315.386L318.568 126.761H318.625V122.182H319.318ZM322.41 128.091C322.016 128.091 321.67 127.997 321.373 127.81C321.077 127.622 320.846 127.36 320.68 127.023C320.515 126.686 320.433 126.292 320.433 125.841C320.433 125.386 320.515 124.99 320.68 124.651C320.846 124.312 321.077 124.048 321.373 123.861C321.67 123.673 322.016 123.58 322.41 123.58C322.804 123.58 323.148 123.673 323.444 123.861C323.741 124.048 323.972 124.312 324.137 124.651C324.304 124.99 324.387 125.386 324.387 125.841C324.387 126.292 324.304 126.686 324.137 127.023C323.972 127.36 323.741 127.622 323.444 127.81C323.148 127.997 322.804 128.091 322.41 128.091ZM322.41 127.489C322.709 127.489 322.955 127.412 323.148 127.259C323.342 127.105 323.485 126.903 323.577 126.653C323.67 126.403 323.717 126.133 323.717 125.841C323.717 125.549 323.67 125.277 323.577 125.026C323.485 124.774 323.342 124.57 323.148 124.415C322.955 124.259 322.709 124.182 322.41 124.182C322.111 124.182 321.864 124.259 321.671 124.415C321.478 124.57 321.335 124.774 321.242 125.026C321.149 125.277 321.103 125.549 321.103 125.841C321.103 126.133 321.149 126.403 321.242 126.653C321.335 126.903 321.478 127.105 321.671 127.259C321.864 127.412 322.111 127.489 322.41 127.489ZM328.822 123.636L327.209 128H326.527L324.913 123.636H325.641L326.845 127.114H326.891L328.095 123.636H328.822Z" fill="white"/>
<path d="M347.5 128H345.705V122.182H347.58C348.144 122.182 348.627 122.298 349.028 122.531C349.43 122.762 349.738 123.095 349.952 123.528C350.166 123.96 350.273 124.477 350.273 125.08C350.273 125.686 350.165 126.207 349.949 126.645C349.733 127.08 349.419 127.416 349.006 127.651C348.593 127.884 348.091 128 347.5 128ZM346.409 127.375H347.455C347.936 127.375 348.334 127.282 348.651 127.097C348.967 126.911 349.203 126.647 349.358 126.304C349.513 125.961 349.591 125.553 349.591 125.08C349.591 124.61 349.514 124.205 349.361 123.866C349.207 123.526 348.978 123.264 348.673 123.082C348.368 122.899 347.989 122.807 347.534 122.807H346.409V127.375ZM353.193 128.091C352.773 128.091 352.41 127.998 352.105 127.812C351.802 127.625 351.568 127.364 351.403 127.028C351.241 126.691 351.159 126.299 351.159 125.852C351.159 125.405 351.241 125.011 351.403 124.67C351.568 124.328 351.797 124.061 352.091 123.869C352.386 123.676 352.731 123.58 353.125 123.58C353.352 123.58 353.577 123.617 353.798 123.693C354.02 123.769 354.222 123.892 354.403 124.062C354.585 124.231 354.73 124.455 354.838 124.733C354.946 125.011 355 125.354 355 125.761V126.045H351.636V125.466H354.318C354.318 125.22 354.269 125 354.17 124.807C354.074 124.614 353.936 124.461 353.756 124.349C353.578 124.238 353.367 124.182 353.125 124.182C352.858 124.182 352.627 124.248 352.432 124.381C352.239 124.511 352.09 124.682 351.986 124.892C351.882 125.102 351.83 125.328 351.83 125.568V125.955C351.83 126.284 351.886 126.563 352 126.793C352.116 127.02 352.276 127.193 352.48 127.312C352.685 127.43 352.922 127.489 353.193 127.489C353.369 127.489 353.528 127.464 353.67 127.415C353.814 127.364 353.938 127.288 354.043 127.188C354.147 127.085 354.227 126.958 354.284 126.807L354.932 126.989C354.864 127.208 354.749 127.402 354.588 127.568C354.427 127.733 354.228 127.862 353.991 127.955C353.755 128.045 353.489 128.091 353.193 128.091ZM357.793 128.091C357.384 128.091 357.031 127.994 356.736 127.801C356.44 127.608 356.213 127.342 356.054 127.003C355.895 126.664 355.815 126.277 355.815 125.841C355.815 125.398 355.897 125.007 356.06 124.668C356.224 124.327 356.454 124.061 356.747 123.869C357.043 123.676 357.387 123.58 357.781 123.58C358.088 123.58 358.365 123.636 358.611 123.75C358.857 123.864 359.059 124.023 359.216 124.227C359.373 124.432 359.471 124.67 359.509 124.943H358.838C358.787 124.744 358.673 124.568 358.497 124.415C358.323 124.259 358.088 124.182 357.793 124.182C357.531 124.182 357.302 124.25 357.105 124.386C356.91 124.521 356.758 124.711 356.648 124.957C356.54 125.202 356.486 125.489 356.486 125.818C356.486 126.155 356.539 126.449 356.645 126.699C356.753 126.949 356.904 127.143 357.099 127.281C357.296 127.42 357.527 127.489 357.793 127.489C357.967 127.489 358.125 127.458 358.267 127.398C358.409 127.337 358.529 127.25 358.628 127.136C358.726 127.023 358.796 126.886 358.838 126.727H359.509C359.471 126.985 359.377 127.217 359.227 127.423C359.08 127.628 358.884 127.791 358.639 127.912C358.397 128.031 358.115 128.091 357.793 128.091Z" fill="white"/>
<path d="M10.5 116.08C10.072 116.08 9.70739 115.963 9.40625 115.73C9.10511 115.495 8.875 115.155 8.71591 114.71C8.55682 114.263 8.47727 113.723 8.47727 113.091C8.47727 112.462 8.55682 111.925 8.71591 111.48C8.87689 111.033 9.10795 110.692 9.40909 110.457C9.71212 110.221 10.0758 110.102 10.5 110.102C10.9242 110.102 11.2869 110.221 11.5881 110.457C11.8911 110.692 12.1222 111.033 12.2812 111.48C12.4422 111.925 12.5227 112.462 12.5227 113.091C12.5227 113.723 12.4432 114.263 12.2841 114.71C12.125 115.155 11.8949 115.495 11.5938 115.73C11.2926 115.963 10.928 116.08 10.5 116.08ZM10.5 115.455C10.9242 115.455 11.2538 115.25 11.4886 114.841C11.7235 114.432 11.8409 113.848 11.8409 113.091C11.8409 112.587 11.7869 112.158 11.679 111.804C11.5729 111.45 11.4195 111.18 11.2188 110.994C11.0199 110.809 10.7803 110.716 10.5 110.716C10.0795 110.716 9.75095 110.923 9.5142 111.338C9.27746 111.751 9.15909 112.335 9.15909 113.091C9.15909 113.595 9.21212 114.023 9.31818 114.375C9.42424 114.727 9.5767 114.995 9.77557 115.179C9.97633 115.363 10.2178 115.455 10.5 115.455Z" fill="white"/>
<path d="M2.64773 89.1818V95H1.94318V89.9205H1.90909L0.488636 90.8636V90.1477L1.94318 89.1818H2.64773ZM6.21875 95.0795C5.79072 95.0795 5.42614 94.9631 5.125 94.7301C4.82386 94.4953 4.59375 94.1553 4.43466 93.7102C4.27557 93.2633 4.19602 92.7235 4.19602 92.0909C4.19602 91.4621 4.27557 90.9252 4.43466 90.4801C4.59564 90.0331 4.8267 89.6922 5.12784 89.4574C5.43087 89.2206 5.79451 89.1023 6.21875 89.1023C6.64299 89.1023 7.00568 89.2206 7.30682 89.4574C7.60985 89.6922 7.84091 90.0331 8 90.4801C8.16098 90.9252 8.24148 91.4621 8.24148 92.0909C8.24148 92.7235 8.16193 93.2633 8.00284 93.7102C7.84375 94.1553 7.61364 94.4953 7.3125 94.7301C7.01136 94.9631 6.64678 95.0795 6.21875 95.0795ZM6.21875 94.4545C6.64299 94.4545 6.97254 94.25 7.20739 93.8409C7.44223 93.4318 7.55966 92.8485 7.55966 92.0909C7.55966 91.5871 7.50568 91.1581 7.39773 90.804C7.29167 90.4498 7.13826 90.1799 6.9375 89.9943C6.73864 89.8087 6.49905 89.7159 6.21875 89.7159C5.7983 89.7159 5.4697 89.9233 5.23295 90.3381C4.99621 90.7509 4.87784 91.3352 4.87784 92.0909C4.87784 92.5947 4.93087 93.0227 5.03693 93.375C5.14299 93.7273 5.29545 93.9953 5.49432 94.179C5.69508 94.3627 5.93655 94.4545 6.21875 94.4545ZM11.2188 95.0795C10.7907 95.0795 10.4261 94.9631 10.125 94.7301C9.82386 94.4953 9.59375 94.1553 9.43466 93.7102C9.27557 93.2633 9.19602 92.7235 9.19602 92.0909C9.19602 91.4621 9.27557 90.9252 9.43466 90.4801C9.59564 90.0331 9.8267 89.6922 10.1278 89.4574C10.4309 89.2206 10.7945 89.1023 11.2188 89.1023C11.643 89.1023 12.0057 89.2206 12.3068 89.4574C12.6098 89.6922 12.8409 90.0331 13 90.4801C13.161 90.9252 13.2415 91.4621 13.2415 92.0909C13.2415 92.7235 13.1619 93.2633 13.0028 93.7102C12.8438 94.1553 12.6136 94.4953 12.3125 94.7301C12.0114 94.9631 11.6468 95.0795 11.2188 95.0795ZM11.2188 94.4545C11.643 94.4545 11.9725 94.25 12.2074 93.8409C12.4422 93.4318 12.5597 92.8485 12.5597 92.0909C12.5597 91.5871 12.5057 91.1581 12.3977 90.804C12.2917 90.4498 12.1383 90.1799 11.9375 89.9943C11.7386 89.8087 11.4991 89.7159 11.2188 89.7159C10.7983 89.7159 10.4697 89.9233 10.233 90.3381C9.99621 90.7509 9.87784 91.3352 9.87784 92.0909C9.87784 92.5947 9.93087 93.0227 10.0369 93.375C10.143 93.7273 10.2955 93.9953 10.4943 94.179C10.6951 94.3627 10.9366 94.4545 11.2188 94.4545Z" fill="white"/>
<path d="M0.602273 74V73.4886L2.52273 71.3864C2.74811 71.1402 2.93371 70.9261 3.07955 70.7443C3.22538 70.5606 3.33333 70.3883 3.40341 70.2273C3.47538 70.0644 3.51136 69.8939 3.51136 69.7159C3.51136 69.5114 3.46212 69.3343 3.36364 69.1847C3.26705 69.035 3.13447 68.9195 2.96591 68.8381C2.79735 68.7566 2.60795 68.7159 2.39773 68.7159C2.17424 68.7159 1.97917 68.7623 1.8125 68.8551C1.64773 68.946 1.51989 69.0739 1.42898 69.2386C1.33996 69.4034 1.29545 69.5966 1.29545 69.8182H0.625C0.625 69.4773 0.703598 69.178 0.860795 68.9205C1.01799 68.6629 1.23201 68.4621 1.50284 68.3182C1.77557 68.1742 2.08144 68.1023 2.42045 68.1023C2.76136 68.1023 3.06345 68.1742 3.3267 68.3182C3.58996 68.4621 3.7964 68.6562 3.94602 68.9006C4.09564 69.1449 4.17045 69.4167 4.17045 69.7159C4.17045 69.9299 4.13163 70.1392 4.05398 70.3438C3.97822 70.5464 3.84564 70.7727 3.65625 71.0227C3.46875 71.2708 3.20833 71.5739 2.875 71.9318L1.56818 73.3295V73.375H4.27273V74H0.602273ZM7.34375 74.0795C6.91572 74.0795 6.55114 73.9631 6.25 73.7301C5.94886 73.4953 5.71875 73.1553 5.55966 72.7102C5.40057 72.2633 5.32102 71.7235 5.32102 71.0909C5.32102 70.4621 5.40057 69.9252 5.55966 69.4801C5.72064 69.0331 5.9517 68.6922 6.25284 68.4574C6.55587 68.2206 6.91951 68.1023 7.34375 68.1023C7.76799 68.1023 8.13068 68.2206 8.43182 68.4574C8.73485 68.6922 8.96591 69.0331 9.125 69.4801C9.28598 69.9252 9.36648 70.4621 9.36648 71.0909C9.36648 71.7235 9.28693 72.2633 9.12784 72.7102C8.96875 73.1553 8.73864 73.4953 8.4375 73.7301C8.13636 73.9631 7.77178 74.0795 7.34375 74.0795ZM7.34375 73.4545C7.76799 73.4545 8.09754 73.25 8.33239 72.8409C8.56723 72.4318 8.68466 71.8485 8.68466 71.0909C8.68466 70.5871 8.63068 70.1581 8.52273 69.804C8.41667 69.4498 8.26326 69.1799 8.0625 68.9943C7.86364 68.8087 7.62405 68.7159 7.34375 68.7159C6.9233 68.7159 6.5947 68.9233 6.35795 69.3381C6.12121 69.7509 6.00284 70.3352 6.00284 71.0909C6.00284 71.5947 6.05587 72.0227 6.16193 72.375C6.26799 72.7273 6.42045 72.9953 6.61932 73.179C6.82008 73.3627 7.06155 73.4545 7.34375 73.4545ZM12.3438 74.0795C11.9157 74.0795 11.5511 73.9631 11.25 73.7301C10.9489 73.4953 10.7188 73.1553 10.5597 72.7102C10.4006 72.2633 10.321 71.7235 10.321 71.0909C10.321 70.4621 10.4006 69.9252 10.5597 69.4801C10.7206 69.0331 10.9517 68.6922 11.2528 68.4574C11.5559 68.2206 11.9195 68.1023 12.3438 68.1023C12.768 68.1023 13.1307 68.2206 13.4318 68.4574C13.7348 68.6922 13.9659 69.0331 14.125 69.4801C14.286 69.9252 14.3665 70.4621 14.3665 71.0909C14.3665 71.7235 14.2869 72.2633 14.1278 72.7102C13.9688 73.1553 13.7386 73.4953 13.4375 73.7301C13.1364 73.9631 12.7718 74.0795 12.3438 74.0795ZM12.3438 73.4545C12.768 73.4545 13.0975 73.25 13.3324 72.8409C13.5672 72.4318 13.6847 71.8485 13.6847 71.0909C13.6847 70.5871 13.6307 70.1581 13.5227 69.804C13.4167 69.4498 13.2633 69.1799 13.0625 68.9943C12.8636 68.8087 12.6241 68.7159 12.3438 68.7159C11.9233 68.7159 11.5947 68.9233 11.358 69.3381C11.1212 69.7509 11.0028 70.3352 11.0028 71.0909C11.0028 71.5947 11.0559 72.0227 11.1619 72.375C11.268 72.7273 11.4205 72.9953 11.6193 73.179C11.8201 73.3627 12.0616 73.4545 12.3438 73.4545Z" fill="white"/>
<path d="M2.56818 53.0795C2.19318 53.0795 1.8589 53.0152 1.56534 52.8864C1.27367 52.7576 1.04167 52.5786 0.869318 52.3494C0.698864 52.1184 0.606061 51.8504 0.590909 51.5455H1.30682C1.32197 51.733 1.38636 51.8949 1.5 52.0312C1.61364 52.1657 1.76231 52.2699 1.94602 52.3438C2.12973 52.4176 2.33333 52.4545 2.55682 52.4545C2.80682 52.4545 3.02841 52.411 3.22159 52.3239C3.41477 52.2367 3.56629 52.1155 3.67614 51.9602C3.78598 51.8049 3.84091 51.625 3.84091 51.4205C3.84091 51.2064 3.78788 51.018 3.68182 50.8551C3.57576 50.6903 3.42045 50.5616 3.21591 50.4688C3.01136 50.3759 2.76136 50.3295 2.46591 50.3295H2V49.7045H2.46591C2.69697 49.7045 2.89962 49.6629 3.07386 49.5795C3.25 49.4962 3.38731 49.3788 3.4858 49.2273C3.58617 49.0758 3.63636 48.8977 3.63636 48.6932C3.63636 48.4962 3.5928 48.3248 3.50568 48.179C3.41856 48.0331 3.29545 47.9195 3.13636 47.8381C2.97917 47.7566 2.79356 47.7159 2.57955 47.7159C2.37879 47.7159 2.18939 47.7528 2.01136 47.8267C1.83523 47.8987 1.69129 48.0038 1.57955 48.142C1.4678 48.2784 1.4072 48.4432 1.39773 48.6364H0.715909C0.727273 48.3314 0.819129 48.0644 0.991477 47.8352C1.16383 47.6042 1.3892 47.4242 1.66761 47.2955C1.94792 47.1667 2.25568 47.1023 2.59091 47.1023C2.95076 47.1023 3.25947 47.1752 3.51705 47.321C3.77462 47.465 3.97254 47.6553 4.1108 47.892C4.24905 48.1288 4.31818 48.3845 4.31818 48.6591C4.31818 48.9867 4.23201 49.2661 4.05966 49.4972C3.8892 49.7282 3.6572 49.8883 3.36364 49.9773V50.0227C3.73106 50.0833 4.01799 50.2396 4.22443 50.4915C4.43087 50.7415 4.53409 51.0511 4.53409 51.4205C4.53409 51.7367 4.44792 52.0208 4.27557 52.2727C4.10511 52.5227 3.87216 52.7197 3.5767 52.8636C3.28125 53.0076 2.94508 53.0795 2.56818 53.0795ZM7.59375 53.0795C7.16572 53.0795 6.80114 52.9631 6.5 52.7301C6.19886 52.4953 5.96875 52.1553 5.80966 51.7102C5.65057 51.2633 5.57102 50.7235 5.57102 50.0909C5.57102 49.4621 5.65057 48.9252 5.80966 48.4801C5.97064 48.0331 6.2017 47.6922 6.50284 47.4574C6.80587 47.2206 7.16951 47.1023 7.59375 47.1023C8.01799 47.1023 8.38068 47.2206 8.68182 47.4574C8.98485 47.6922 9.21591 48.0331 9.375 48.4801C9.53598 48.9252 9.61648 49.4621 9.61648 50.0909C9.61648 50.7235 9.53693 51.2633 9.37784 51.7102C9.21875 52.1553 8.98864 52.4953 8.6875 52.7301C8.38636 52.9631 8.02178 53.0795 7.59375 53.0795ZM7.59375 52.4545C8.01799 52.4545 8.34754 52.25 8.58239 51.8409C8.81723 51.4318 8.93466 50.8485 8.93466 50.0909C8.93466 49.5871 8.88068 49.1581 8.77273 48.804C8.66667 48.4498 8.51326 48.1799 8.3125 47.9943C8.11364 47.8087 7.87405 47.7159 7.59375 47.7159C7.1733 47.7159 6.8447 47.9233 6.60795 48.3381C6.37121 48.7509 6.25284 49.3352 6.25284 50.0909C6.25284 50.5947 6.30587 51.0227 6.41193 51.375C6.51799 51.7273 6.67045 51.9953 6.86932 52.179C7.07008 52.3627 7.31155 52.4545 7.59375 52.4545ZM12.5938 53.0795C12.1657 53.0795 11.8011 52.9631 11.5 52.7301C11.1989 52.4953 10.9688 52.1553 10.8097 51.7102C10.6506 51.2633 10.571 50.7235 10.571 50.0909C10.571 49.4621 10.6506 48.9252 10.8097 48.4801C10.9706 48.0331 11.2017 47.6922 11.5028 47.4574C11.8059 47.2206 12.1695 47.1023 12.5938 47.1023C13.018 47.1023 13.3807 47.2206 13.6818 47.4574C13.9848 47.6922 14.2159 48.0331 14.375 48.4801C14.536 48.9252 14.6165 49.4621 14.6165 50.0909C14.6165 50.7235 14.5369 51.2633 14.3778 51.7102C14.2188 52.1553 13.9886 52.4953 13.6875 52.7301C13.3864 52.9631 13.0218 53.0795 12.5938 53.0795ZM12.5938 52.4545C13.018 52.4545 13.3475 52.25 13.5824 51.8409C13.8172 51.4318 13.9347 50.8485 13.9347 50.0909C13.9347 49.5871 13.8807 49.1581 13.7727 48.804C13.6667 48.4498 13.5133 48.1799 13.3125 47.9943C13.1136 47.8087 12.8741 47.7159 12.5938 47.7159C12.1733 47.7159 11.8447 47.9233 11.608 48.3381C11.3712 48.7509 11.2528 49.3352 11.2528 50.0909C11.2528 50.5947 11.3059 51.0227 11.4119 51.375C11.518 51.7273 11.6705 51.9953 11.8693 52.179C12.0701 52.3627 12.3116 52.4545 12.5938 52.4545Z" fill="white"/>
<path d="M0.465909 30.8068V30.2273L3.02273 26.1818H3.44318V27.0795H3.15909L1.22727 30.1364V30.1818H4.67045V30.8068H0.465909ZM3.20455 32V30.6307V30.3608V26.1818H3.875V32H3.20455ZM7.63281 32.0795C7.20478 32.0795 6.8402 31.9631 6.53906 31.7301C6.23793 31.4953 6.00781 31.1553 5.84872 30.7102C5.68963 30.2633 5.61009 29.7235 5.61009 29.0909C5.61009 28.4621 5.68963 27.9252 5.84872 27.4801C6.00971 27.0331 6.24077 26.6922 6.5419 26.4574C6.84493 26.2206 7.20857 26.1023 7.63281 26.1023C8.05705 26.1023 8.41974 26.2206 8.72088 26.4574C9.02391 26.6922 9.25497 27.0331 9.41406 27.4801C9.57505 27.9252 9.65554 28.4621 9.65554 29.0909C9.65554 29.7235 9.57599 30.2633 9.4169 30.7102C9.25781 31.1553 9.0277 31.4953 8.72656 31.7301C8.42543 31.9631 8.06084 32.0795 7.63281 32.0795ZM7.63281 31.4545C8.05705 31.4545 8.3866 31.25 8.62145 30.8409C8.8563 30.4318 8.97372 29.8485 8.97372 29.0909C8.97372 28.5871 8.91974 28.1581 8.81179 27.804C8.70573 27.4498 8.55232 27.1799 8.35156 26.9943C8.1527 26.8087 7.91312 26.7159 7.63281 26.7159C7.21236 26.7159 6.88376 26.9233 6.64702 27.3381C6.41027 27.7509 6.2919 28.3352 6.2919 29.0909C6.2919 29.5947 6.34493 30.0227 6.45099 30.375C6.55705 30.7273 6.70952 30.9953 6.90838 31.179C7.10914 31.3627 7.35062 31.4545 7.63281 31.4545ZM12.6328 32.0795C12.2048 32.0795 11.8402 31.9631 11.5391 31.7301C11.2379 31.4953 11.0078 31.1553 10.8487 30.7102C10.6896 30.2633 10.6101 29.7235 10.6101 29.0909C10.6101 28.4621 10.6896 27.9252 10.8487 27.4801C11.0097 27.0331 11.2408 26.6922 11.5419 26.4574C11.8449 26.2206 12.2086 26.1023 12.6328 26.1023C13.0571 26.1023 13.4197 26.2206 13.7209 26.4574C14.0239 26.6922 14.255 27.0331 14.4141 27.4801C14.575 27.9252 14.6555 28.4621 14.6555 29.0909C14.6555 29.7235 14.576 30.2633 14.4169 30.7102C14.2578 31.1553 14.0277 31.4953 13.7266 31.7301C13.4254 31.9631 13.0608 32.0795 12.6328 32.0795ZM12.6328 31.4545C13.0571 31.4545 13.3866 31.25 13.6214 30.8409C13.8563 30.4318 13.9737 29.8485 13.9737 29.0909C13.9737 28.5871 13.9197 28.1581 13.8118 27.804C13.7057 27.4498 13.5523 27.1799 13.3516 26.9943C13.1527 26.8087 12.9131 26.7159 12.6328 26.7159C12.2124 26.7159 11.8838 26.9233 11.647 27.3381C11.4103 27.7509 11.2919 28.3352 11.2919 29.0909C11.2919 29.5947 11.3449 30.0227 11.451 30.375C11.5571 30.7273 11.7095 30.9953 11.9084 31.179C12.1091 31.3627 12.3506 31.4545 12.6328 31.4545Z" fill="white"/>
<path d="M2.42045 11.0795C2.08712 11.0795 1.78693 11.0133 1.51989 10.8807C1.25284 10.7481 1.03883 10.5663 0.877841 10.3352C0.716856 10.1042 0.628788 9.84091 0.613636 9.54545H1.29545C1.32197 9.80871 1.44129 10.0265 1.65341 10.1989C1.86742 10.3693 2.12311 10.4545 2.42045 10.4545C2.65909 10.4545 2.87121 10.3987 3.05682 10.2869C3.24432 10.1752 3.3911 10.0218 3.49716 9.8267C3.60511 9.62973 3.65909 9.4072 3.65909 9.15909C3.65909 8.9053 3.60322 8.67898 3.49148 8.48011C3.38163 8.27936 3.23011 8.12121 3.03693 8.00568C2.84375 7.89015 2.62311 7.83144 2.375 7.82955C2.19697 7.82765 2.0142 7.85511 1.8267 7.91193C1.6392 7.96686 1.48485 8.03788 1.36364 8.125L0.704545 8.04545L1.05682 5.18182H4.07955V5.80682H1.64773L1.44318 7.52273H1.47727C1.59659 7.42803 1.74621 7.34943 1.92614 7.28693C2.10606 7.22443 2.29356 7.19318 2.48864 7.19318C2.8447 7.19318 3.16193 7.27841 3.44034 7.44886C3.72064 7.61742 3.94034 7.84848 4.09943 8.14205C4.26042 8.43561 4.34091 8.77083 4.34091 9.14773C4.34091 9.51894 4.25758 9.85038 4.09091 10.142C3.92614 10.4318 3.69886 10.661 3.40909 10.8295C3.11932 10.9962 2.78977 11.0795 2.42045 11.0795ZM7.36719 11.0795C6.93916 11.0795 6.57457 10.9631 6.27344 10.7301C5.9723 10.4953 5.74219 10.1553 5.5831 9.71023C5.42401 9.26326 5.34446 8.72348 5.34446 8.09091C5.34446 7.46212 5.42401 6.92519 5.5831 6.48011C5.74408 6.03314 5.97514 5.69223 6.27628 5.45739C6.57931 5.22064 6.94295 5.10227 7.36719 5.10227C7.79143 5.10227 8.15412 5.22064 8.45526 5.45739C8.75829 5.69223 8.98935 6.03314 9.14844 6.48011C9.30942 6.92519 9.38991 7.46212 9.38991 8.09091C9.38991 8.72348 9.31037 9.26326 9.15128 9.71023C8.99219 10.1553 8.76207 10.4953 8.46094 10.7301C8.1598 10.9631 7.79522 11.0795 7.36719 11.0795ZM7.36719 10.4545C7.79143 10.4545 8.12098 10.25 8.35582 9.84091C8.59067 9.43182 8.7081 8.84848 8.7081 8.09091C8.7081 7.58712 8.65412 7.15814 8.54616 6.80398C8.4401 6.44981 8.2867 6.17992 8.08594 5.99432C7.88707 5.80871 7.64749 5.71591 7.36719 5.71591C6.94673 5.71591 6.61813 5.9233 6.38139 6.33807C6.14465 6.75095 6.02628 7.33523 6.02628 8.09091C6.02628 8.5947 6.07931 9.02273 6.18537 9.375C6.29143 9.72727 6.44389 9.99527 6.64276 10.179C6.84351 10.3627 7.08499 10.4545 7.36719 10.4545ZM12.3672 11.0795C11.9392 11.0795 11.5746 10.9631 11.2734 10.7301C10.9723 10.4953 10.7422 10.1553 10.5831 9.71023C10.424 9.26326 10.3445 8.72348 10.3445 8.09091C10.3445 7.46212 10.424 6.92519 10.5831 6.48011C10.7441 6.03314 10.9751 5.69223 11.2763 5.45739C11.5793 5.22064 11.9429 5.10227 12.3672 5.10227C12.7914 5.10227 13.1541 5.22064 13.4553 5.45739C13.7583 5.69223 13.9893 6.03314 14.1484 6.48011C14.3094 6.92519 14.3899 7.46212 14.3899 8.09091C14.3899 8.72348 14.3104 9.26326 14.1513 9.71023C13.9922 10.1553 13.7621 10.4953 13.4609 10.7301C13.1598 10.9631 12.7952 11.0795 12.3672 11.0795ZM12.3672 10.4545C12.7914 10.4545 13.121 10.25 13.3558 9.84091C13.5907 9.43182 13.7081 8.84848 13.7081 8.09091C13.7081 7.58712 13.6541 7.15814 13.5462 6.80398C13.4401 6.44981 13.2867 6.17992 13.0859 5.99432C12.8871 5.80871 12.6475 5.71591 12.3672 5.71591C11.9467 5.71591 11.6181 5.9233 11.3814 6.33807C11.1446 6.75095 11.0263 7.33523 11.0263 8.09091C11.0263 8.5947 11.0793 9.02273 11.1854 9.375C11.2914 9.72727 11.4439 9.99527 11.6428 10.179C11.8435 10.3627 12.085 10.4545 12.3672 10.4545Z" fill="white"/>
<defs>
<filter id="filter0_d_76_90" x="13.6715" y="0.15896" width="348.196" height="123.7" filterUnits="userSpaceOnUse" color-interpolation-filters="sRGB">
<feFlood flood-opacity="0" result="BackgroundImageFix"/>
<feColorMatrix in="SourceAlpha" type="matrix" values="0 0 0 0 0 0 0 0 0 0 0 0 0 0 0 0 0 0 127 0" result="hardAlpha"/>
<feOffset dy="4"/>
<feGaussianBlur stdDeviation="4.2"/>
<feComposite in2="hardAlpha" operator="out"/>
<feColorMatrix type="matrix" values="0 0 0 0 0.662745 0 0 0 0 0.87451 0 0 0 0 0.847059 0 0 0 0.61 0"/>
<feBlend mode="normal" in2="BackgroundImageFix" result="effect1_dropShadow_76_90"/>
<feBlend mode="normal" in="SourceGraphic" in2="effect1_dropShadow_76_90" result="shape"/>
</filter>
</defs>
</svg>
